<svg width="22" height="18" viewBox="0 0 22 18" fill="none" xmlns="http://www.w3.org/2000/svg">
<path d="M6.92098 17.8757C15.2208 17.8757 19.7618 10.9977 19.7618 5.03488C19.7618 4.84152 19.7575 4.64386 19.7489 4.4505C20.6322 3.81168 21.3945 3.0204 22 2.11386C21.1773 2.47989 20.3038 2.71894 19.4094 2.82285C20.3512 2.25834 21.0563 1.37152 21.3941 0.326791C20.5082 0.851849 19.5393 1.22223 18.529 1.42206C17.8483 0.698769 16.9482 0.219861 15.968 0.0593848C14.9879 -0.101092 13.9821 0.0658009 13.1063 0.53426C12.2304 1.00272 11.5333 1.74665 11.1227 2.65104C10.7121 3.55543 10.6108 4.5699 10.8346 5.53761C9.04062 5.44759 7.28561 4.98157 5.68332 4.16976C4.08102 3.35796 2.66722 2.21849 1.53355 0.825229C0.957366 1.81864 0.781052 2.99418 1.04044 4.11292C1.29984 5.23166 1.97547 6.20966 2.93004 6.84816C2.21341 6.82541 1.51248 6.63246 0.885156 6.28527V6.34113C0.884514 7.38364 1.24492 8.39421 1.90512 9.20104C2.56531 10.0079 3.48455 10.5612 4.50656 10.7669C3.84272 10.9485 3.14598 10.975 2.47027 10.8443C2.75867 11.7408 3.31978 12.525 4.07529 13.0873C4.8308 13.6496 5.74303 13.9621 6.68465 13.981C5.08606 15.2367 3.11133 15.9178 1.07852 15.9146C0.718013 15.914 0.357866 15.8919 0 15.8484C2.06512 17.1733 4.4674 17.8769 6.92098 17.8757Z" fill="black"/>
</svg>
